<?xml version="1.0" standalone="no"?>
<!DOCTYPE svg PUBLIC "-//W3C//DTD SVG 20010904//EN"
 "http://www.w3.org/TR/2001/REC-SVG-20010904/DTD/svg10.dtd">
<svg version="1.0" xmlns="http://www.w3.org/2000/svg"
 width="540.000000pt" height="360.000000pt" viewBox="0 0 540.000000 360.000000"
 preserveAspectRatio="xMidYMid meet">

<g transform="translate(0.000000,360.000000) scale(0.100000,-0.100000)"
fill="#000000" stroke="none">
<path d="M0 1800 l0 -1800 2700 0 2700 0 0 1800 0 1800 -2700 0 -2700 0 0
-1800z m2786 1044 c34 -10 85 -38 134 -75 44 -32 83 -59 86 -59 3 0 17 -9 30
-19 22 -17 40 -19 174 -17 142 2 148 2 139 -16 -5 -10 -6 -18 -2 -17 4 1 17 1
28 0 16 -2 14 -4 -10 -16 -17 -8 -23 -14 -14 -14 9 -1 30 -8 45 -16 16 -8 52
-15 79 -16 l50 -2 -56 -11 c-37 -7 -54 -15 -52 -23 3 -7 -3 -13 -12 -13 -14 0
-14 -3 2 -25 12 -16 34 -27 68 -34 66 -12 272 -39 360 -46 103 -9 206 -25 238
-37 56 -22 18 -51 -83 -63 -84 -10 -130 -26 -130 -46 0 -11 10 -20 30 -24 17
-4 30 -10 30 -15 0 -4 10 -6 22 -2 16 4 19 2 13 -9 -8 -12 -6 -12 8 0 11 9 17
10 17 2 0 -15 30 -14 31 2 0 6 5 2 11 -10 6 -13 14 -23 19 -23 4 0 5 -10 3
-22 l-5 -23 12 22 c12 22 38 38 47 28 3 -3 -4 -12 -16 -21 -12 -8 -22 -22 -22
-30 0 -8 -5 -14 -11 -14 -5 0 -7 -4 -4 -10 3 -5 0 -10 -7 -10 -9 0 -9 -3 2
-10 13 -8 12 -10 -2 -10 -10 0 -18 -4 -18 -10 0 -5 7 -7 15 -4 8 4 15 1 15 -6
0 -8 -9 -10 -26 -6 -20 5 -27 3 -31 -13 -3 -10 -13 -21 -24 -24 -22 -6 -26 8
-4 17 8 3 15 12 15 20 0 9 9 20 20 26 11 6 20 17 20 25 0 13 -31 37 -55 41
-55 10 -60 9 -58 -12 2 -16 -5 -24 -22 -28 -26 -7 -35 -26 -12 -26 8 0 7 -4
-3 -10 -20 -13 -33 -12 -24 2 4 7 3 8 -4 4 -7 -4 -10 -17 -8 -29 3 -19 9 -22
55 -22 28 1 51 -3 51 -7 0 -4 -38 -8 -84 -8 -87 0 -120 -6 -111 -20 3 -5 -8
-5 -25 0 -27 8 -29 7 -20 -10 14 -25 13 -35 -2 -22 -9 7 -17 5 -27 -5 -12 -14
-12 -15 0 -11 8 3 19 -2 26 -11 17 -22 16 -34 -2 -28 -8 4 -17 1 -21 -5 -5 -8
40 -10 167 -6 96 3 163 2 149 -2 -14 -5 -52 -9 -85 -10 -85 -2 -113 -15 -51
-23 26 -4 60 -5 74 -2 22 4 23 4 7 -4 -18 -8 -16 -9 15 -15 19 -4 46 -5 60 -3
14 2 37 1 53 -4 15 -4 27 -4 27 2 0 5 7 9 16 9 8 0 12 -4 9 -10 -9 -14 8 -13
23 2 7 7 12 8 12 2 0 -14 -41 -32 -88 -40 -20 -3 -46 -7 -57 -9 -11 -2 -48 -4
-82 -4 -35 -1 -63 -5 -63 -11 0 -6 23 -9 55 -7 30 2 52 0 49 -5 -3 -4 -14 -8
-25 -8 -10 0 -19 -6 -20 -12 0 -10 -2 -10 -6 0 -6 14 -63 17 -63 2 0 -5 -13
-10 -29 -10 -20 0 -37 9 -54 30 -20 23 -27 27 -36 16 -6 -7 -7 -16 -3 -21 4
-4 -3 -2 -15 4 -13 6 -23 14 -23 17 0 3 4 3 8 0 11 -6 38 11 30 20 -4 3 -27 9
-53 11 -32 4 -45 2 -45 -7 0 -9 -4 -9 -12 -2 -16 12 -79 21 -72 10 3 -4 0 -8
-6 -8 -7 0 -9 8 -5 20 5 16 2 20 -14 20 -12 0 -21 5 -21 10 0 6 -12 10 -26 10
-24 0 -25 2 -13 17 12 15 12 16 -8 11 -12 -3 -30 0 -40 7 -22 15 -105 30 -101
18 5 -15 -12 -13 -37 3 -13 9 -29 13 -35 9 -18 -11 -11 -22 14 -20 14 2 27 -2
29 -9 3 -7 -5 -11 -22 -10 -14 0 -32 -6 -39 -15 -11 -14 -12 -13 -7 6 4 16 1
23 -15 28 -11 3 -20 11 -20 16 0 6 9 7 21 4 22 -7 22 -7 3 13 -28 28 -61 44
-69 32 -3 -5 -16 -10 -28 -10 -16 0 -18 3 -9 9 10 6 6 10 -15 14 -15 3 -29 2
-31 -3 -4 -10 -45 0 -54 14 -5 7 -8 6 -8 -3 0 -11 -3 -11 -17 0 -11 10 -14 10
-9 2 5 -9 1 -13 -10 -13 -20 0 -74 -16 -122 -36 -41 -17 -69 -18 -75 -1 -2 6
-7 9 -11 6 -4 -4 0 -14 9 -22 20 -21 19 -30 -7 -55 -20 -17 -26 -19 -41 -8
-10 8 -15 20 -11 30 7 19 16 20 31 5 7 -7 13 -7 17 -1 3 6 -1 18 -10 27 -13
13 -19 13 -32 3 -13 -11 -15 -10 -9 5 5 15 3 16 -12 7 -14 -7 -22 -6 -31 5 -7
8 -16 12 -21 10 -4 -3 -12 3 -18 12 -10 17 -10 17 -11 -1 0 -14 -3 -16 -13 -7
-8 6 -18 7 -22 3 -5 -4 -5 1 -2 11 4 9 2 17 -2 17 -5 0 -11 -5 -13 -11 -2 -7
-13 -9 -26 -5 -13 4 -19 12 -16 18 5 7 1 9 -9 5 -9 -3 -19 -2 -22 3 -9 14 -21
12 -39 -6 -15 -14 -16 -12 -16 20 0 26 -4 36 -16 36 -9 0 -29 9 -44 20 -32 23
-103 50 -131 50 -14 0 -19 -7 -19 -25 0 -32 -47 -126 -71 -143 -11 -7 -19 -22
-19 -33 0 -10 -4 -19 -10 -19 -12 0 -13 20 -1 40 6 8 7 18 5 22 -8 12 -32 -15
-27 -29 3 -8 -3 -11 -16 -8 -18 3 -20 1 -11 -16 8 -13 8 -19 0 -19 -6 0 -10
-8 -8 -17 2 -13 -5 -19 -24 -21 -26 -3 -42 -32 -18 -32 6 0 10 -7 10 -16 0 -8
-5 -12 -11 -9 -6 4 -9 0 -7 -11 2 -15 -4 -19 -32 -20 -74 -1 -82 -3 -76 -19 3
-8 0 -15 -7 -15 -7 0 -19 -5 -27 -10 -12 -7 -7 -16 28 -45 23 -20 42 -41 42
-47 0 -5 -16 4 -36 22 -22 19 -44 30 -54 27 -10 -2 -24 -1 -31 4 -11 6 -6 15
21 38 19 17 30 30 23 31 -6 0 -15 -5 -18 -10 -4 -6 -11 -7 -17 -4 -7 4 -8 2
-4 -4 5 -8 -1 -12 -18 -12 -13 0 -37 -5 -52 -10 -15 -6 -31 -7 -36 -2 -12 12
-66 2 -72 -13 -3 -8 2 -11 15 -8 11 3 19 0 19 -8 0 -7 -3 -10 -6 -6 -3 3 -17
1 -31 -4 -18 -6 -30 -6 -39 2 -8 7 -18 8 -22 4 -4 -4 -1 -10 6 -12 6 -3 12
-11 12 -19 0 -15 -30 -8 -42 10 -14 20 -9 49 7 42 8 -3 38 6 67 19 29 14 49
25 43 25 -5 0 -3 5 5 10 12 8 11 10 -6 10 -18 0 -21 6 -19 38 1 30 -8 71 -21
91 -4 6 -64 -23 -64 -31 0 -4 -16 -7 -35 -6 -36 1 -50 18 -15 18 21 0 25 8 12
26 -18 27 -82 39 -66 12 4 -7 2 -8 -4 -4 -6 4 -9 13 -6 20 3 7 -2 21 -12 30
-12 13 -14 20 -5 29 14 14 15 30 0 22 -6 -4 -13 3 -16 15 -4 13 -16 23 -34 27
-16 3 -26 9 -23 14 3 5 14 4 25 -1 11 -6 24 -8 29 -5 6 3 10 1 10 -5 0 -6 6
-8 13 -4 10 6 10 4 0 -7 -22 -22 -14 -30 12 -13 25 16 29 14 26 -18 -1 -10 3
-18 8 -18 6 0 10 3 10 8 -4 22 3 34 16 28 13 -4 13 -2 5 14 -13 24 -13 41 1
18 5 -10 17 -15 27 -12 12 4 13 3 4 -3 -10 -8 -10 -12 1 -22 8 -6 21 -9 29 -6
9 4 18 -1 21 -9 4 -9 14 -16 22 -16 9 0 13 5 10 10 -4 6 -10 8 -15 5 -4 -3
-10 2 -14 10 -3 8 -1 17 4 20 6 4 10 0 11 -7 0 -7 4 -4 8 7 10 23 5 35 -12 35
-8 0 -8 -3 1 -9 10 -6 8 -10 -9 -14 -13 -4 -28 -2 -34 4 -7 7 -4 8 8 4 10 -4
17 -2 17 4 0 6 -3 11 -7 11 -5 0 -19 3 -32 7 -17 4 -22 3 -17 -5 11 -18 0 -14
-15 5 -10 11 -10 14 -1 9 6 -4 12 -2 12 3 0 6 8 11 18 12 12 0 11 3 -6 10 -13
5 -29 6 -35 3 -7 -3 -3 2 7 10 11 9 23 16 28 16 4 0 5 7 2 15 -4 8 -1 15 5 15
6 0 11 9 11 21 0 11 5 17 10 14 6 -3 10 0 11 7 0 10 2 10 6 0 3 -8 18 -2 49
20 24 17 44 35 44 39 0 5 15 13 33 18 32 9 32 9 -13 10 -68 2 -88 21 -22 21
33 0 51 4 47 10 -4 6 6 10 22 11 25 0 26 1 8 9 -19 8 -19 9 3 9 12 1 22 4 22
9 0 4 10 12 23 18 181 88 312 165 300 177 -3 4 -27 7 -52 8 -46 1 -109 16 -81
19 85 9 163 20 200 30 25 6 67 16 94 21 26 6 53 15 60 20 6 5 38 30 71 55 33
25 62 49 63 55 2 5 8 9 14 9 5 0 23 9 38 20 56 40 183 51 276 24z m1370 -669
c10 -8 28 -15 39 -15 18 0 18 -2 -5 -20 -20 -16 -22 -22 -11 -29 9 -6 10 -11
2 -15 -6 -4 -11 -2 -11 3 0 23 -26 9 -37 -19 -14 -37 -32 -40 -25 -4 2 14 17
35 32 46 31 22 30 48 -1 48 -10 0 -19 5 -19 10 0 14 13 12 36 -5z m77 -25 c-3
-11 -9 -20 -13 -20 -5 0 -6 9 -3 20 3 11 9 20 13 20 5 0 6 -9 3 -20z m117 -9
c-5 -11 -15 -23 -21 -27 -6 -3 -3 5 6 20 20 30 30 35 15 7z m-2930 -21 c-8 -5
-19 -10 -25 -10 -5 0 -3 5 5 10 8 5 20 10 25 10 6 0 3 -5 -5 -10z m2811 -24
c-6 -7 -22 -16 -34 -19 -19 -5 -18 -3 8 18 30 25 46 26 26 1z m-2886 4 c3 -5
1 -10 -4 -10 -6 0 -11 5 -11 10 0 6 2 10 4 10 3 0 8 -4 11 -10z m2895 -44 c0
-3 -4 -8 -10 -11 -5 -3 -10 -1 -10 4 0 6 5 11 10 11 6 0 10 -2 10 -4z m-1838
-28 c-7 -7 -12 -8 -12 -2 0 6 3 14 7 17 3 4 9 5 12 2 2 -3 -1 -11 -7 -17z
m1663 12 c-11 -5 -29 -8 -40 -8 -16 0 -15 2 5 8 34 11 60 11 35 0z m135 0 c0
-5 -4 -10 -10 -10 -5 0 -10 5 -10 10 0 6 5 10 10 10 6 0 10 -4 10 -10z m-2881
-50 c10 -5 21 -23 24 -39 5 -21 11 -29 21 -25 8 3 17 0 22 -7 5 -9 2 -10 -9
-6 -22 8 -22 -11 1 -36 9 -11 11 -17 5 -13 -7 4 -13 3 -13 -3 0 -6 -6 -8 -14
-5 -7 3 -11 14 -9 27 3 13 -4 31 -16 44 -22 23 -28 38 -11 28 20 -13 9 14 -12
29 -25 18 -17 22 11 6z m2762 -52 c-5 -13 -14 -22 -20 -21 -6 2 -8 -4 -4 -14
4 -11 3 -14 -5 -9 -7 4 -12 0 -13 -11 -1 -14 -2 -15 -6 -2 -6 24 16 76 26 60
6 -10 10 -9 14 3 4 9 9 16 11 16 3 0 1 -10 -3 -22z m-986 -4 c-22 -8 -46 -22
-52 -31 -8 -11 -13 -12 -13 -4 0 26 37 49 80 50 20 0 16 -3 -15 -15z m-1593
-19 c0 -5 -5 -11 -10 -13 -5 -1 -9 4 -9 13 0 9 4 14 9 13 5 -2 10 -8 10 -13z
m1843 -5 c3 -5 1 -10 -4 -10 -6 0 -11 5 -11 10 0 6 2 10 4 10 3 0 8 -4 11 -10z
m-1941 -15 c-7 -17 -20 -20 -29 -6 -3 5 3 12 12 14 10 3 19 5 20 6 1 0 0 -6
-3 -14z m26 -5 c0 -5 -5 -10 -11 -10 -5 0 -7 5 -4 10 3 6 8 10 11 10 2 0 4 -4
4 -10z m660 -3 c0 -16 -38 -53 -45 -45 -3 3 1 11 10 18 8 7 15 19 15 26 0 8 5
14 10 14 6 0 10 -6 10 -13z m44 -12 c-4 -8 -8 -15 -10 -15 -2 0 -4 7 -4 15 0
8 4 15 10 15 5 0 7 -7 4 -15z m-631 -37 c21 -20 21 -20 2 -13 -11 5 -32 9 -47
9 -31 1 -43 10 -33 26 10 16 52 4 78 -22z m124 10 c-3 -8 -6 -5 -6 6 -1 11 2
17 5 13 3 -3 4 -12 1 -19z m-292 2 c3 -5 1 -10 -4 -10 -6 0 -11 5 -11 10 0 6
2 10 4 10 3 0 8 -4 11 -10z m2885 6 c0 -2 -7 -7 -16 -10 -8 -3 -12 -2 -9 4 6
10 25 14 25 6z m-2810 -17 c0 -5 -4 -8 -8 -5 -5 3 -18 -3 -29 -14 -12 -10 -23
-16 -27 -13 -7 7 35 42 52 43 6 0 12 -5 12 -11z m2360 -80 c0 -5 -7 -6 -15 -3
-8 4 -15 13 -15 21 0 13 3 13 15 3 8 -7 15 -16 15 -21z m-1991 -47 c-7 -2 -21
-6 -29 -9 -23 -9 -50 -10 -50 -3 0 9 63 26 79 21 13 -4 13 -5 0 -9z m559 -17
c30 -34 28 -44 -2 -16 -21 20 -31 22 -70 17 -29 -5 -46 -12 -46 -21 0 -8 -11
-25 -24 -38 -12 -13 -26 -30 -29 -38 -4 -11 -6 -11 -6 2 -1 9 10 28 24 43 14
15 25 35 25 46 0 19 18 26 76 29 21 1 37 -7 52 -24z m-998 0 c0 -8 -2 -15 -4
-15 -2 0 -6 7 -10 15 -3 8 -1 15 4 15 6 0 10 -7 10 -15z m74 -37 c-5 -7 -3 -8
6 -3 17 11 60 13 60 4 0 -4 9 -9 19 -12 14 -3 18 -11 14 -26 -6 -25 -21 -28
-19 -3 0 10 -6 16 -16 16 -10 -1 -15 2 -12 7 12 20 -39 1 -55 -20 l-17 -22 2
28 c2 41 3 43 15 43 5 0 7 -5 3 -12z m255 -12 c10 -12 8 -13 -8 -9 -12 3 -21
9 -21 14 0 14 16 11 29 -5z m944 -25 c14 -5 35 -25 48 -43 46 -66 65 -72 109
-38 31 24 46 25 55 3 8 -22 4 -29 -15 -24 -9 2 -6 -5 8 -17 12 -11 22 -28 22
-38 0 -11 4 -26 10 -34 8 -12 10 -12 16 3 3 9 13 17 21 17 8 0 12 -3 9 -8 -2
-4 3 -23 11 -42 14 -32 16 -33 23 -15 8 18 9 18 9 2 1 -10 6 -15 11 -12 6 3
10 1 10 -5 0 -6 11 -5 30 5 16 8 36 15 45 15 17 0 36 39 27 54 -3 5 0 6 6 2 7
-4 12 -3 12 3 0 6 12 17 28 25 39 20 102 36 102 26 0 -5 -19 -15 -42 -21 -57
-16 -81 -38 -75 -66 3 -17 0 -23 -14 -23 -10 0 -21 -5 -24 -10 -4 -6 -10 -8
-15 -5 -4 3 -13 -2 -20 -10 -11 -14 -10 -14 14 -5 36 13 46 13 46 -4 0 -16
-27 -29 -41 -20 -5 3 -9 -2 -9 -10 0 -9 -3 -15 -7 -14 -17 4 -53 -14 -53 -27
0 -8 10 -21 22 -29 29 -20 18 -30 -17 -14 -22 10 -26 17 -22 42 4 26 3 27 -10
11 -17 -24 -17 -24 7 -60 11 -16 20 -23 20 -15 0 11 3 11 12 2 10 -10 10 -15
-2 -22 -8 -6 -21 -8 -28 -5 -7 3 -10 1 -7 -4 9 -16 45 -8 51 11 6 21 34 12 34
-12 0 -9 11 -37 23 -61 15 -28 21 -50 16 -59 -4 -8 -11 -32 -14 -53 -3 -21
-10 -35 -16 -32 -5 4 -9 1 -9 -6 0 -8 -4 -8 -15 1 -10 9 -15 9 -15 1 0 -6 -6
-11 -14 -11 -16 0 -42 -37 -51 -73 -4 -16 -1 -30 10 -41 10 -9 15 -20 11 -23
-3 -3 -1 -12 5 -19 13 -16 2 -58 -21 -79 -25 -22 -199 -48 -267 -40 -28 3 -68
15 -90 26 -25 13 -54 19 -85 18 -26 -2 -50 0 -54 4 -4 3 -15 2 -26 -4 -10 -5
-23 -7 -28 -4 -6 3 -20 -1 -32 -9 -12 -9 -36 -16 -53 -16 -16 0 -37 -5 -45
-10 -11 -8 -7 -9 14 -4 20 5 27 3 22 -4 -3 -6 -2 -13 4 -17 5 -3 10 -1 10 6 0
7 6 5 13 -6 8 -10 18 -15 23 -12 6 3 15 -3 22 -14 10 -16 9 -19 -5 -19 -17 -1
-17 -1 0 -11 10 -6 25 -8 33 -5 8 3 14 1 14 -4 0 -6 -5 -10 -12 -10 -9 0 -9
-3 0 -12 9 -9 20 -9 49 0 34 10 40 9 58 -10 11 -11 14 -18 8 -14 -8 4 -13 1
-13 -8 0 -9 -9 -21 -19 -28 -20 -12 -18 -38 3 -38 6 0 27 9 47 19 35 19 68 14
55 -7 -3 -6 -2 -13 4 -17 5 -3 10 -1 10 6 0 8 7 6 20 -6 15 -14 25 -15 47 -8
29 10 53 7 53 -7 0 -8 -32 -15 -105 -25 -67 -8 -95 -16 -90 -25 7 -12 -27 -29
-51 -26 -13 2 -21 14 -25 37 -4 19 -7 28 -8 22 0 -7 -9 -13 -18 -13 -16 0 -16
-2 -3 -11 11 -8 12 -12 3 -16 -7 -2 -13 -10 -13 -17 0 -8 -9 -12 -23 -9 -18 4
-22 11 -24 48 -2 57 -9 68 -32 53 -14 -9 -23 -7 -42 5 -13 10 -30 17 -39 17
-8 0 -21 12 -27 28 -7 15 -26 35 -42 45 -32 19 -87 23 -93 7 -2 -7 -15 -6 -38
3 -39 15 -62 15 -102 -2 -16 -6 -28 -7 -28 -2 0 17 78 41 104 31 13 -5 26 -6
29 -3 11 10 95 17 132 11 12 -2 21 4 23 15 3 16 1 17 -17 8 -15 -8 -22 -8 -28
2 -5 8 -32 12 -73 13 -74 0 -162 8 -176 16 -5 3 -40 5 -79 6 -38 0 -78 4 -88
7 -9 4 -33 5 -52 3 -19 -2 -35 0 -35 4 0 4 -13 8 -30 8 -33 0 -42 23 -12 34 9
3 23 9 31 12 9 4 11 2 7 -5 -6 -8 0 -10 17 -6 14 4 58 8 98 9 41 2 82 6 92 11
10 4 35 3 54 -3 24 -7 42 -8 54 -2 26 14 33 12 19 -5 -7 -9 -11 -17 -9 -19 9
-9 45 -9 68 -2 18 6 26 4 33 -8 14 -24 44 -19 67 11 13 19 20 23 21 13 0 -9
-5 -21 -11 -27 -8 -8 -7 -16 2 -31 l13 -21 36 21 c19 12 37 24 40 28 3 3 17 6
33 7 15 0 43 8 63 18 19 9 44 17 55 18 18 1 19 2 4 14 -10 6 -14 16 -10 22 13
22 -47 11 -65 -11 -10 -13 -22 -19 -26 -15 -5 4 -2 12 6 17 13 8 12 10 -2 10
-10 0 -18 -4 -18 -9 0 -5 -10 -11 -22 -14 -13 -3 -34 -9 -47 -13 -20 -6 -23
-4 -18 9 10 26 -31 21 -53 -5 -15 -19 -21 -21 -31 -11 -11 11 -10 13 3 13 9 0
20 10 24 23 6 21 21 37 36 37 4 0 5 -7 2 -15 -4 -8 -1 -15 5 -15 6 0 10 3 10
8 -4 25 5 39 31 49 29 11 43 36 18 31 -8 -2 -12 5 -11 17 1 11 0 14 -3 8 -3
-7 -12 -13 -20 -13 -8 0 -14 -4 -14 -10 0 -5 -4 -10 -8 -10 -4 0 -8 9 -8 20 0
32 56 42 157 29 59 -7 85 -7 87 0 2 6 12 11 22 11 11 0 45 10 77 22 56 21 57
22 28 28 -20 4 -30 11 -29 23 1 9 -2 17 -8 17 -5 0 -6 5 -3 10 3 6 22 10 42
10 54 0 144 32 138 49 -4 9 1 12 15 8 14 -3 20 -1 17 6 -4 14 35 47 57 47 9 0
16 7 16 16 0 12 10 15 43 14 23 -1 47 -1 52 0 6 1 14 2 19 1 5 -1 5 6 1 16 -5
10 -10 33 -13 52 -4 28 -2 33 12 28 9 -4 16 -2 16 3 0 13 -36 12 -155 -5 -117
-17 -228 -20 -205 -5 8 5 31 10 50 10 19 1 62 7 95 14 45 10 55 15 42 21 -15
6 -16 10 -5 16 10 7 9 9 -5 9 -14 0 -16 5 -11 28 4 15 3 24 -1 20 -10 -10 -35
10 -35 28 0 8 6 14 14 14 8 0 18 5 22 12 4 7 3 8 -5 4 -6 -4 -14 0 -18 11 -18
50 -52 89 -89 102 -21 8 -44 21 -51 30 -7 9 -13 11 -13 4 0 -6 -8 -10 -17 -9
-10 2 -24 -3 -31 -11 -17 -17 -32 -17 -32 0 0 15 26 41 50 50 16 6 46 2 83
-12z m-1063 -11 c0 -5 -4 -10 -10 -10 -5 0 -10 5 -10 10 0 6 5 10 10 10 6 0
10 -4 10 -10z m44 -36 c4 -11 2 -12 -14 -1 -11 6 -20 15 -20 19 0 12 28 -3 34
-18z m300 11 c-4 -8 -10 -15 -15 -15 -4 0 -6 7 -3 15 4 8 10 15 15 15 4 0 6
-7 3 -15z m176 -5 c64 -12 100 -27 100 -44 0 -16 -53 -27 -72 -14 -7 4 -32 8
-56 8 -26 0 -41 4 -37 10 3 6 1 10 -4 10 -6 0 -11 -4 -11 -10 0 -5 -6 -10 -12
-10 -7 0 -25 -6 -40 -14 -22 -12 -26 -12 -22 -1 3 8 19 18 35 24 38 13 37 18
-6 16 -28 0 -35 3 -35 18 0 15 5 17 34 12 21 -4 36 -2 41 5 4 6 14 8 24 4 9
-3 36 -10 61 -14z m311 4 c7 -9 21 -13 34 -10 22 6 85 -19 85 -33 0 -4 12 -7
27 -6 15 0 28 -7 31 -15 3 -8 1 -12 -3 -8 -5 4 -14 3 -21 -3 -9 -7 -19 -7 -33
0 -11 6 -45 11 -76 11 -39 0 -62 5 -73 16 -14 15 -14 17 2 26 13 8 15 13 5 24
-7 8 -7 14 -1 14 5 0 15 -7 23 -16z m-521 -14 c0 -5 -5 -10 -11 -10 -5 0 -7 5
-4 10 3 6 8 10 11 10 2 0 4 -4 4 -10z m1517 -45 c30 -2 58 -6 61 -10 4 -4 -19
-5 -50 -4 -32 1 -61 0 -65 -4 -3 -4 -13 -7 -22 -6 -12 0 -10 3 4 8 19 8 19 8
-3 15 -15 5 -29 3 -40 -7 -26 -22 -42 -29 -42 -19 0 6 15 19 33 30 23 14 37
16 51 10 10 -6 43 -11 73 -13z m1143 1 c0 -2 -8 -10 -17 -17 -16 -13 -17 -12
-4 4 13 16 21 21 21 13z m-971 -10 c-12 -10 -60 -16 -54 -6 3 5 18 10 32 10
15 0 24 -2 22 -4z m740 -13 c-8 -10 -27 -28 -42 -42 -20 -17 -27 -30 -23 -45
4 -18 0 -21 -31 -23 -20 -1 -39 -7 -43 -13 -4 -7 -11 -12 -16 -12 -5 0 -15 -3
-22 -6 -7 -2 -15 -2 -18 1 -9 9 6 27 40 49 l31 19 -43 -3 c-37 -3 -41 -2 -26
9 10 7 23 13 30 13 7 0 17 6 21 13 15 26 45 35 76 25 24 -9 32 -7 50 11 26 25
35 28 16 4z m-2118 -13 c-13 -11 -28 -20 -35 -20 -6 1 0 10 13 20 13 11 28 20
35 20 6 -1 0 -10 -13 -20z m1353 -34 c10 -3 16 -9 13 -12 -3 -3 -21 1 -39 10
-21 11 -34 13 -36 6 -4 -11 -22 -4 -22 10 0 14 34 17 50 5 8 -7 24 -15 34 -19z
m950 -17 c-20 -22 -42 -26 -24 -4 7 8 9 15 5 15 -5 0 0 9 11 21 17 19 19 19
22 4 2 -9 -4 -25 -14 -36z m-874 26 c11 -13 10 -14 -4 -9 -9 3 -16 10 -16 15
0 13 6 11 20 -6z m209 -25 c-19 -11 -176 -24 -167 -15 12 12 120 31 152 27 20
-3 24 -7 15 -12z m621 10 c-20 -13 -33 -13 -25 0 3 6 14 10 23 10 15 0 15 -2
2 -10z m-475 -10 c-28 -12 -75 -12 -75 0 0 6 21 10 48 9 35 0 42 -3 27 -9z
m-105 -10 c-20 -13 -33 -13 -25 0 3 6 14 10 23 10 15 0 15 -2 2 -10z m533 -2
c-4 -7 -8 -17 -8 -23 0 -5 -7 -10 -15 -10 -9 0 -14 -9 -13 -22 2 -15 -2 -20
-15 -18 -9 2 -21 4 -25 4 -4 1 10 19 32 41 39 39 60 52 44 28z m-752 -30 c-1
-5 -3 -8 -6 -8 -54 0 -60 2 -40 10 23 10 46 9 46 -2z m-148 -25 c-7 -2 -21 -2
-30 0 -10 3 -4 5 12 5 17 0 24 -2 18 -5z m167 -13 c0 -5 -4 -10 -10 -10 -5 0
-10 5 -10 10 0 6 5 10 10 10 6 0 10 -4 10 -10z m500 -15 c0 -7 -8 -16 -17 -21
-24 -10 -22 -9 -65 -18 -31 -7 -41 -15 -57 -50 -28 -59 -33 -83 -21 -91 8 -5
8 -10 0 -20 -8 -9 -8 -15 0 -20 13 -8 -12 -35 -34 -35 -20 0 -30 17 -14 23 7
3 3 6 -9 6 -12 1 -24 9 -28 20 -14 44 -125 95 -151 68 -4 -3 -20 3 -35 14 -28
20 -29 21 -11 44 9 12 20 21 25 18 4 -2 7 1 7 6 0 6 3 10 8 9 16 -4 52 14 46
24 -5 7 -2 8 7 2 8 -5 27 -9 42 -10 34 -2 40 -7 42 -37 3 -34 37 -30 65 9 26
35 70 62 70 43 0 -5 10 -3 22 5 12 9 37 16 55 16 18 0 33 5 33 11 0 5 5 7 10
4 6 -3 10 -12 10 -20z m234 -20 c-31 -29 -36 -28 -27 3 4 15 13 22 30 22 l24
0 -27 -25z m-670 -1 c3 -8 2 -12 -4 -9 -6 3 -10 10 -10 16 0 14 7 11 14 -7z
m-1294 -28 c45 -8 -126 -40 -279 -52 -80 -6 -83 -6 -77 13 6 19 4 20 -36 12
-24 -4 -54 -8 -68 -8 -23 1 -23 1 5 10 17 5 91 11 165 14 74 2 145 7 157 12
20 7 91 7 133 -1z m472 -98 c-4 -4 -8 14 -9 40 l-1 47 8 -40 c4 -22 5 -43 2
-47z m-1245 -14 c-3 -3 -12 -4 -19 -1 -8 3 -5 6 6 6 11 1 17 -2 13 -5z m-627
-198 c0 -2 -13 -6 -29 -8 -17 -2 -28 -1 -25 4 5 8 54 12 54 4z m98 -19 c45
-33 103 -97 97 -106 -2 -5 7 -31 20 -60 23 -48 36 -57 72 -52 7 1 30 -3 51 -8
29 -8 44 -20 61 -51 22 -40 35 -48 45 -31 7 11 66 20 66 10 0 -4 20 -6 44 -3
42 6 45 4 76 -35 38 -47 50 -49 93 -19 l30 22 -7 -34 c-3 -19 -13 -38 -21 -43
-42 -23 -60 -56 -55 -101 1 -10 -3 -22 -10 -26 -7 -4 -2 -13 15 -24 26 -17 27
-17 52 8 33 33 99 54 115 38 9 -9 4 -12 -22 -12 -35 -1 -80 -28 -80 -49 0 -13
-34 -14 -77 -2 -23 7 -37 5 -53 -6 -12 -8 -29 -13 -39 -10 -10 2 -26 0 -35 -5
-9 -5 -16 -5 -16 0 0 11 73 52 94 52 14 0 15 4 6 20 -6 11 -15 18 -21 15 -5
-4 -9 -1 -9 5 0 6 -6 8 -12 4 -7 -4 -10 -3 -5 1 9 10 -22 47 -34 39 -5 -3 -9
0 -9 5 0 18 -53 12 -93 -9 -34 -18 -40 -19 -53 -6 -8 8 -20 13 -27 11 -7 -2
-27 -6 -45 -9 -30 -5 -33 -4 -27 14 5 15 3 18 -9 14 -9 -3 -16 -2 -16 3 0 5
-12 16 -27 25 -34 20 -75 54 -74 62 1 3 -2 7 -6 8 -17 5 -35 56 -36 103 -1 44
12 85 50 158 3 4 0 6 -6 5 -6 -2 -17 8 -24 22 -18 36 -74 71 -106 65 -22 -5
-23 -4 -6 4 30 14 38 13 73 -12z m-186 -15 c-13 -10 -29 -28 -35 -41 -7 -13
-15 -23 -19 -22 -14 2 -50 -40 -44 -54 2 -7 -4 -21 -15 -31 -10 -9 -19 -12
-19 -6 0 6 5 14 10 17 7 4 7 12 0 24 -8 16 -3 23 30 45 22 14 40 31 40 36 0
15 42 50 59 50 12 0 10 -5 -7 -18z m1298 -72 c0 -5 -2 -10 -4 -10 -3 0 -8 5
-11 10 -3 6 -1 10 4 10 6 0 11 -4 11 -10z m-1179 -56 c29 -26 15 -29 -19 -4
-22 16 -36 20 -53 14 -13 -4 -30 -7 -36 -6 -8 2 -10 -3 -7 -13 4 -10 2 -14 -8
-10 -15 6 -83 -19 -92 -34 -7 -11 -56 -2 -56 11 0 5 9 6 21 3 23 -8 59 19 59
44 0 10 3 12 8 5 5 -8 18 -7 47 2 50 16 111 11 136 -12z m1049 -49 c0 -8 -9
-15 -20 -15 -22 0 -27 15 -7 23 21 9 27 7 27 -8z m-244 -141 c63 -18 69 -29
17 -29 -21 -1 -46 -5 -55 -9 -27 -12 -22 9 5 23 20 10 20 11 -10 8 -32 -3 -40
2 -26 16 8 9 7 9 69 -9z m-679 -90 c31 -31 22 -46 -10 -16 -13 12 -27 19 -30
15 -4 -3 -7 -2 -7 4 0 11 -31 13 -40 2 -3 -3 -22 -4 -44 -1 -56 7 -24 22 47
22 49 0 62 -4 84 -26z m1463 17 c0 -5 -9 -7 -20 -4 -11 3 -20 7 -20 9 0 2 9 4
20 4 11 0 20 -4 20 -9z m-1400 -97 c6 -14 15 -22 21 -18 7 4 10 -1 7 -11 -1
-10 -9 -20 -16 -23 -7 -2 -10 2 -6 12 4 10 -3 19 -20 27 -28 13 -35 39 -11 39
9 0 20 -12 25 -26z m1065 -35 c-3 -4 -12 -6 -20 -3 -8 4 -13 10 -10 15 3 4 12
6 20 3 8 -4 13 -10 10 -15z m1860 2 c-27 -8 -65 -41 -75 -66 -9 -19 -9 -20 -9
0 -1 30 56 84 82 77 21 -6 21 -6 2 -11z m-2237 -23 c20 -15 22 -19 7 -13 -11
4 -30 10 -42 12 -13 3 -23 9 -23 14 0 16 31 9 58 -13z m737 -10 c29 -13 16
-28 -25 -28 -31 1 -67 25 -48 33 22 9 46 7 73 -5z m280 3 c32 -7 34 -9 13 -10
-16 0 -28 -6 -28 -12 0 -6 -8 -9 -17 -6 -10 2 -30 -2 -44 -9 -15 -8 -43 -13
-63 -12 l-36 1 52 28 c59 30 66 31 123 20z m-955 -76 c0 -11 -14 7 -31 40 -7
13 -3 12 10 -5 11 -14 21 -29 21 -35z m490 10 c-7 -8 -17 -15 -23 -15 -6 0 -2
7 9 15 25 19 30 19 14 0z m-45 -13 c-3 -3 -11 0 -18 7 -9 10 -8 11 6 5 10 -3
15 -9 12 -12z m555 8 c0 -5 -5 -10 -11 -10 -5 0 -7 5 -4 10 3 6 8 10 11 10 2
0 4 -4 4 -10z m-561 -70 c27 0 32 -11 14 -28 -14 -14 -17 -14 -29 2 -8 12 -19
16 -30 12 -10 -4 -21 -1 -26 6 -12 19 -10 28 7 28 9 0 19 8 22 17 5 14 8 12
16 -10 5 -16 16 -27 26 -27z m446 40 c4 -6 1 -9 -7 -8 -7 2 -12 -3 -10 -9 1
-7 -7 -13 -19 -13 -11 0 -18 -4 -14 -9 3 -6 -3 -10 -12 -10 -10 0 -43 -5 -73
-11 -30 -7 -67 -10 -82 -8 -15 3 -28 1 -28 -3 0 -4 -15 -7 -32 -7 -56 0 -69
-2 -64 -10 3 -5 -10 -9 -29 -10 -26 -1 -33 2 -28 13 3 8 13 15 23 15 11 0 21
4 25 10 3 5 20 13 38 19 18 5 41 12 52 16 14 4 13 2 -4 -8 -23 -13 -18 -14 60
-13 46 1 93 7 104 14 11 6 16 12 10 12 -5 0 1 7 15 14 30 17 67 20 75 6z m990
-10 c-3 -5 -15 -10 -26 -10 -11 0 -17 5 -14 10 3 6 15 10 26 10 11 0 17 -4 14
-10z m-2304 -13 c-7 -7 -14 -8 -21 -1 -6 6 -2 10 12 11 16 2 18 -1 9 -10z
m1565 4 c-3 -5 10 -16 29 -25 19 -9 37 -21 40 -26 10 -15 -4 -12 -33 9 -34 23
-136 37 -129 17 4 -9 -2 -13 -16 -11 -12 0 -35 -5 -51 -13 -15 -7 -25 -9 -22
-3 14 23 99 51 133 45 21 -4 33 -2 33 5 0 6 5 11 11 11 5 0 8 -4 5 -9z m979
-10 c3 -5 1 -12 -5 -16 -5 -3 -10 1 -10 9 0 18 6 21 15 7z m-75 -12 c13 -9 12
-10 -2 -5 -10 3 -18 1 -18 -5 0 -5 -11 -7 -25 -3 -15 4 -25 2 -25 -5 0 -6 -8
-11 -18 -11 -10 0 -28 -7 -41 -16 -22 -16 -23 -16 -12 5 21 39 108 64 141 40z
m60 -60 c0 -6 -4 -7 -10 -4 -5 3 -10 11 -10 16 0 6 5 7 10 4 6 -3 10 -11 10
-16z m-1550 -31 c11 -4 9 -8 -8 -17 -13 -7 -31 -10 -39 -7 -14 6 -14 9 3 25
10 10 21 15 24 11 3 -4 12 -9 20 -12z m1340 18 c0 -3 -4 -8 -10 -11 -5 -3 -10
-1 -10 4 0 6 5 11 10 11 6 0 10 -2 10 -4z m14 -21 c-4 -8 -11 -15 -16 -15 -6
0 -5 6 2 15 7 8 14 15 16 15 2 0 1 -7 -2 -15z m-1177 -21 c-3 -3 -21 -9 -41
-14 -44 -10 -38 6 7 18 32 9 46 7 34 -4z m28 -44 c-3 -5 -12 -10 -18 -10 -7 0
-6 4 3 10 19 12 23 12 15 0z m195 6 c0 -2 -7 -9 -15 -16 -13 -11 -14 -10 -9 4
5 14 24 23 24 12z m740 -16 c0 -5 -5 -10 -11 -10 -5 0 -7 5 -4 10 3 6 8 10 11
10 2 0 4 -4 4 -10z"/>
<path d="M2160 2058 c0 -8 -10 -28 -22 -43 -21 -27 -21 -27 -1 -17 20 11 40
59 28 70 -3 3 -5 -2 -5 -10z"/>
<path d="M1500 2019 c0 -5 5 -7 10 -4 6 3 10 8 10 11 0 2 -4 4 -10 4 -5 0 -10
-5 -10 -11z"/>
<path d="M1578 1973 c7 -3 16 -2 19 1 4 3 -2 6 -13 5 -11 0 -14 -3 -6 -6z"/>
<path d="M3728 1883 c6 -2 18 -2 25 0 6 3 1 5 -13 5 -14 0 -19 -2 -12 -5z"/>
<path d="M3573 1853 c9 -2 23 -2 30 0 6 3 -1 5 -18 5 -16 0 -22 -2 -12 -5z"/>
<path d="M3740 1851 l-34 -6 29 -19 c28 -18 48 -20 110 -11 11 2 49 4 85 4 42
1 60 5 50 10 -32 18 -183 32 -240 22z"/>
<path d="M3678 1843 c7 -3 16 -2 19 1 4 3 -2 6 -13 5 -11 0 -14 -3 -6 -6z"/>
<path d="M2910 1263 c0 -13 5 -23 10 -23 13 0 13 11 0 30 -8 12 -10 11 -10 -7z"/>
<path d="M2375 900 c-3 -5 -1 -10 4 -10 6 0 11 5 11 10 0 6 -2 10 -4 10 -3 0
-8 -4 -11 -10z"/>
<path d="M2326 881 c-4 -5 3 -7 14 -4 23 6 26 13 6 13 -8 0 -17 -4 -20 -9z"/>
<path d="M2266 854 c-17 -12 -17 -14 -4 -14 9 0 20 5 23 11 11 17 2 18 -19 3z"/>
<path d="M2217 833 c-4 -3 -7 -11 -7 -17 0 -6 5 -5 12 2 6 6 9 14 7 17 -3 3
-9 2 -12 -2z"/>
<path d="M2311 831 c-8 -6 -9 -11 -3 -15 6 -3 14 -1 17 5 9 14 2 20 -14 10z"/>
<path d="M2422 540 c10 -6 25 -7 40 -1 20 9 18 10 -17 10 -31 0 -36 -2 -23 -9z"/>
<path d="M2400 497 c0 -8 6 -20 14 -26 12 -10 13 -8 9 9 -7 25 -23 37 -23 17z"/>
<path d="M1735 591 c-3 -5 -1 -12 5 -16 5 -3 10 1 10 9 0 18 -6 21 -15 7z"/>
</g>
</svg>
